<svg width="256" height="56" viewBox="0 0 256 56" fill="none" xmlns="http://www.w3.org/2000/svg">
<g clip-path="url(#clip0)">
<path d="M2.08 12.75L23.36 1.08C23.9598 0.749978 24.6343 0.579429 25.3189 0.584682C26.0035 0.589935 26.6753 0.770813 27.27 1.11L48 12.96C48.6089 13.3116 49.1145 13.8175 49.4656 14.4267C49.8167 15.0359 50.001 15.7269 50 16.43V39.97C50.0003 40.6842 49.8095 41.3854 49.4472 42.0009C49.085 42.6164 48.5645 43.1236 47.94 43.47L27.24 54.94C26.653 55.2652 25.9936 55.4374 25.3226 55.4409C24.6515 55.4444 23.9904 55.279 23.4 54.96L2.1 43.46C1.46501 43.1172 0.934571 42.6091 0.564873 41.9894C0.195174 41.3697 -1.02494e-05 40.6616 4.03672e-10 39.94L4.03673e-10 16.26C0.00162564 15.5438 0.195501 14.8412 0.56138 14.2256C0.927259 13.6099 1.45172 13.1038 2.08 12.76V12.75Z" fill="url(#paint0_linear)"/>
<path d="M41.2973 37.2323C39.2187 40.9107 30.2372 39.7143 21.2365 34.5602C12.2357 29.4061 6.62418 22.246 8.70274 18.5677C10.7813 14.8893 19.7629 16.0857 28.7636 21.2398C37.7643 26.3939 43.3759 33.554 41.2973 37.2323Z" stroke="white" stroke-width="1.5"/>
<path d="M41.2973 18.4677C39.2187 14.7893 30.2372 15.9857 21.2365 21.1398C12.2357 26.2939 6.62418 33.454 8.70274 37.1323C10.7813 40.8107 19.7629 39.6143 28.7636 34.4602C37.7643 29.3061 43.3759 22.146 41.2973 18.4677Z" stroke="white" stroke-width="1.5"/>
<path d="M25.07 8.98C20.8671 8.98 17.46 17.4284 17.46 27.85C17.46 38.2716 20.8671 46.72 25.07 46.72C29.2729 46.72 32.68 38.2716 32.68 27.85C32.68 17.4284 29.2729 8.98 25.07 8.98Z" stroke="white" stroke-width="1.5"/>
<path d="M28.04 27.72C28.04 26.03 26.679 24.66 25 24.66C23.3211 24.66 21.96 26.03 21.96 27.72C21.96 29.41 23.3211 30.78 25 30.78C26.679 30.78 28.04 29.41 28.04 27.72Z" fill="white"/>
<path d="M61.8512 42.8V15.0734H71.8107C75.3781 15.0734 78.0885 15.7272 79.942 17.0349C81.8082 18.3425 82.7413 20.2404 82.7413 22.7287C82.7413 24.1633 82.4113 25.3884 81.7511 26.404C81.0909 27.4196 80.1198 28.1686 78.8375 28.6511C80.2848 29.0319 81.3956 29.7429 82.17 30.7839C82.9445 31.8249 83.3317 33.0944 83.3317 34.5925C83.3317 37.3093 82.4684 39.3532 80.7418 40.7243C79.028 42.0827 76.4825 42.7746 73.1056 42.8H61.8512ZM68.5353 31.0124V37.6584H72.9152C74.1212 37.6584 75.048 37.3854 75.6954 36.8395C76.3429 36.2809 76.6666 35.5002 76.6666 34.4973C76.6666 32.1867 75.5177 31.0251 73.2198 31.0124H68.5353ZM68.5353 26.6325H72.0201C73.4801 26.6198 74.5211 26.3532 75.1432 25.8327C75.7653 25.3122 76.0763 24.5441 76.0763 23.5285C76.0763 22.3605 75.7399 21.5226 75.067 21.0148C74.3942 20.4943 73.3087 20.2341 71.8107 20.2341H68.5353V26.6325ZM85.9215 32.3073C85.9215 30.2507 86.3214 28.4225 87.1212 26.8229C87.921 25.2106 89.0699 23.9728 90.568 23.1096C92.066 22.2463 93.8243 21.8146 95.8429 21.8146C98.9279 21.8146 101.359 22.7731 103.136 24.6901C104.914 26.5944 105.802 29.1906 105.802 32.4787V32.7072C105.802 35.9191 104.907 38.4709 103.117 40.3625C101.34 42.2414 98.9279 43.1808 95.881 43.1808C92.9484 43.1808 90.5934 42.3049 88.816 40.5529C87.0387 38.7883 86.0802 36.4016 85.9406 33.3928L85.9215 32.3073ZM92.339 32.7072C92.339 34.6115 92.6373 36.008 93.234 36.8967C93.8307 37.7853 94.713 38.2297 95.881 38.2297C98.1661 38.2297 99.3341 36.4714 99.3849 32.9548V32.3073C99.3849 28.613 98.2042 26.7658 95.8429 26.7658C93.6974 26.7658 92.5358 28.3591 92.358 31.5456L92.339 32.7072ZM115.4 42.8H108.964V22.1955H115.4V42.8ZM108.583 16.8825C108.583 15.9684 108.913 15.2194 109.573 14.6354C110.233 14.0515 111.09 13.7595 112.144 13.7595C113.197 13.7595 114.054 14.0515 114.714 14.6354C115.375 15.2194 115.705 15.9684 115.705 16.8825C115.705 17.7966 115.375 18.5456 114.714 19.1296C114.054 19.7136 113.197 20.0056 112.144 20.0056C111.09 20.0056 110.233 19.7136 109.573 19.1296C108.913 18.5456 108.583 17.7966 108.583 16.8825ZM126.14 42.8H119.704V13.55H126.14V42.8ZM140.08 43.1808C136.919 43.1808 134.36 42.2414 132.405 40.3625C130.45 38.4709 129.473 36.0143 129.473 32.9929V32.4597C129.473 30.3522 129.86 28.4924 130.634 26.8801C131.422 25.2678 132.564 24.0236 134.062 23.1476C135.56 22.259 137.338 21.8146 139.394 21.8146C142.289 21.8146 144.574 22.716 146.25 24.5187C147.925 26.3088 148.763 28.8098 148.763 32.0217V34.5163H136.005C136.233 35.6716 136.734 36.5793 137.509 37.2394C138.283 37.8996 139.286 38.2297 140.518 38.2297C142.549 38.2297 144.136 37.5187 145.278 36.0969L148.211 39.5627C147.411 40.6672 146.275 41.5495 144.802 42.2097C143.342 42.8571 141.768 43.1808 140.08 43.1808ZM139.356 26.7658C137.477 26.7658 136.36 28.0099 136.005 30.4982H142.479V30.0031C142.505 28.9748 142.244 28.1813 141.698 27.6227C141.152 27.0515 140.372 26.7658 139.356 26.7658ZM163.826 28.0036L161.713 27.8513C159.694 27.8513 158.399 28.486 157.828 29.7556V42.8H151.41V22.1955H157.428L157.637 24.8425C158.716 22.8239 160.221 21.8146 162.151 21.8146C162.836 21.8146 163.433 21.8908 163.941 22.0432L163.826 28.0036ZM185.269 32.6501C185.269 35.8493 184.545 38.4074 183.098 40.3244C181.663 42.2287 179.721 43.1808 177.271 43.1808C175.379 43.1808 173.824 42.489 172.605 41.1052V50.7219H166.188V22.1955H172.186L172.377 24.0998C173.608 22.5764 175.227 21.8146 177.233 21.8146C179.772 21.8146 181.746 22.7541 183.155 24.633C184.564 26.4992 185.269 29.07 185.269 32.3454V32.6501ZM178.851 32.2502C178.851 28.5939 177.785 26.7658 175.652 26.7658C174.129 26.7658 173.113 27.3117 172.605 28.4035V36.5158C173.164 37.6584 174.192 38.2297 175.69 38.2297C177.734 38.2297 178.788 36.465 178.851 32.9357V32.2502ZM194.885 42.8H188.449V13.55H194.885V42.8ZM210.463 42.8C210.234 42.381 210.031 41.7653 209.853 40.9528C208.672 42.4382 207.022 43.1808 204.902 43.1808C202.96 43.1808 201.309 42.5969 199.951 41.4289C198.592 40.2482 197.913 38.7692 197.913 36.9919C197.913 34.7575 198.738 33.069 200.389 31.9265C202.039 30.7839 204.439 30.2126 207.587 30.2126H209.568V29.1271C209.568 27.2355 208.749 26.2897 207.111 26.2897C205.588 26.2897 204.826 27.0388 204.826 28.5368H198.408C198.408 26.5436 199.253 24.925 200.941 23.6808C202.642 22.4367 204.807 21.8146 207.435 21.8146C210.063 21.8146 212.138 22.4557 213.662 23.738C215.185 25.0202 215.966 26.7785 216.004 29.0129V38.1345C216.029 40.0261 216.321 41.4733 216.88 42.4763V42.8H210.463ZM206.444 38.6105C207.244 38.6105 207.904 38.4391 208.425 38.0964C208.958 37.7536 209.339 37.3664 209.568 36.9348V33.6403H207.701C205.467 33.6403 204.35 34.6432 204.35 36.6491C204.35 37.2331 204.547 37.7092 204.94 38.0773C205.334 38.4328 205.835 38.6105 206.444 38.6105ZM227.049 17.0729V22.1955H230.439V26.6516H227.049V36.0778C227.049 36.8522 227.189 37.3918 227.468 37.6965C227.747 38.0012 228.299 38.1535 229.125 38.1535C229.759 38.1535 230.293 38.1154 230.724 38.0392V42.6286C229.569 42.9968 228.363 43.1808 227.106 43.1808C224.897 43.1808 223.266 42.6603 222.212 41.6193C221.158 40.5783 220.631 38.9977 220.631 36.8776V26.6516H218.004V22.1955H220.631V17.0729H227.049ZM242.95 43.1808C239.789 43.1808 237.231 42.2414 235.276 40.3625C233.32 38.4709 232.343 36.0143 232.343 32.9929V32.4597C232.343 30.3522 232.73 28.4924 233.505 26.8801C234.292 25.2678 235.434 24.0236 236.932 23.1476C238.43 22.259 240.208 21.8146 242.264 21.8146C245.159 21.8146 247.444 22.716 249.12 24.5187C250.796 26.3088 251.633 28.8098 251.633 32.0217V34.5163H238.875C239.103 35.6716 239.605 36.5793 240.379 37.2394C241.153 37.8996 242.156 38.2297 243.388 38.2297C245.419 38.2297 247.006 37.5187 248.149 36.0969L251.081 39.5627C250.281 40.6672 249.145 41.5495 247.672 42.2097C246.213 42.8571 244.638 43.1808 242.95 43.1808ZM242.226 26.7658C240.347 26.7658 239.23 28.0099 238.875 30.4982H245.349V30.0031C245.375 28.9748 245.114 28.1813 244.568 27.6227C244.023 27.0515 243.242 26.7658 242.226 26.7658Z" fill="white"/>
</g>
<defs>
<linearGradient id="paint0_linear" x1="24" y1="76" x2="26" y2="19.5" gradientUnits="userSpaceOnUse">
<stop stop-color="#F231A5"/>
<stop offset="1" stop-color="#FF66C2"/>
</linearGradient>
<clipPath id="clip0">
<rect width="256" height="56" fill="white"/>
</clipPath>
</defs>
</svg>
